<?xml version="1.0"?>
<svg width="1500" height="1500" xmlns="http://www.w3.org/2000/svg" xmlns:svg="http://www.w3.org/2000/svg" preserveAspectRatio="xMidYMid meet" version="1.0">
 <g class="layer">
  <title>Layer 1</title>
  <g fill="#000000" id="svg_1" transform="matrix(0.136568 0 0 -0.149548 -57.5757 -42.6232)">
   <path d="m2957.41,-321.82c-171,-26 -303,-81 -474,-199c-98,-68 -260,-203 -260,-217c0,-14 -38,-11 -136,11c-256,57 -520,26 -721,-85c-98,-55 -222,-183 -268,-279c-65,-135 -69,-230 -14,-343c77,-160 262,-218 431,-135c75,37 148,110 148,148c0,29 0,29 -70,4c-102,-36 -181,-22 -234,41c-26,30 -28,39 -24,95c3,53 10,72 43,120c75,109 204,167 370,168c115,0 245,-22 245,-41c0,-7 -11,-35 -24,-61c-66,-130 -125,-399 -241,-1102c-89,-534 -116,-644 -206,-824c-81,-160 -198,-300 -336,-402c-40,-30 -73,-62 -73,-71c0,-18 36,-17 320,8c153,13 345,8 595,-17c224,-21 489,-15 590,13c98,28 182,64 251,108c66,42 174,132 174,145c0,5 -21,42 -48,83l-47,75l-64,-39c-172,-104 -347,-118 -756,-59c-77,11 -163,20 -192,20c-28,0 -55,5 -58,10c-4,6 9,38 28,73c101,182 162,440 278,1162c20,126 82,461 120,653c27,128 24,127 125,91c142,-49 256,-71 404,-76c165,-6 267,9 381,56c73,31 251,160 290,212c109,142 124,317 39,447c-107,166 -333,246 -586,207zm200,-230c110,-23 161,-75 173,-174c10,-88 -52,-176 -161,-227c-42,-20 -67,-24 -148,-24c-53,0 -131,7 -175,15c-84,16 -320,91 -328,105c-6,10 105,118 176,172c70,52 169,102 244,122c109,29 130,30 219,11z" fill="#fbb42f" id="svg_2"/>
   <path d="m4198.41,-926.82c-4,-7 -18,-9 -30,-6c-14,4 -25,1 -28,-7c-3,-9 -9,-9 -26,1c-15,8 -21,9 -21,1c0,-7 -12,-9 -32,-7c-20,3 -38,0 -46,-8c-10,-10 -19,-11 -33,-4c-15,8 -19,7 -19,-5c0,-18 -36,-20 -43,-2c-3,6 -6,2 -6,-10c-1,-25 -29,-31 -49,-11c-9,9 -12,8 -12,-4c0,-20 -24,-30 -39,-15c-8,8 -11,6 -11,-6c0,-22 -26,-33 -44,-18c-11,9 -15,7 -19,-10c-4,-16 -11,-19 -26,-14c-13,4 -21,2 -21,-5c0,-11 -48,-34 -66,-31c-7,1 -14,-8 -17,-20c-4,-16 -11,-19 -26,-14c-16,5 -21,2 -21,-10c0,-13 -6,-16 -25,-13c-20,4 -25,1 -25,-15c0,-14 -5,-18 -20,-14c-15,4 -20,0 -20,-15c0,-16 -5,-19 -24,-14c-21,5 -23,3 -18,-16c5,-19 2,-20 -23,-14c-24,6 -27,5 -22,-13c4,-18 0,-21 -24,-21c-21,0 -27,-4 -23,-15c5,-11 -1,-15 -19,-15c-19,0 -26,-6 -29,-22c-2,-17 -9,-22 -26,-21c-17,2 -23,-2 -21,-15c3,-38 -1,-44 -25,-38c-22,5 -25,3 -23,-21c2,-24 -2,-28 -23,-28c-21,0 -25,-4 -22,-27c3,-24 0,-28 -22,-28c-23,0 -25,-3 -19,-31c5,-29 4,-31 -15,-25c-20,7 -21,4 -16,-23c6,-27 4,-31 -14,-31c-15,0 -19,-5 -15,-20c4,-15 0,-20 -15,-20c-15,0 -19,-5 -15,-20c3,-12 -1,-22 -10,-26c-9,-3 -13,-13 -10,-25c5,-17 -5,-24 -29,-20c-11,2 -10,-17 2,-24c13,-8 1,-35 -17,-35c-10,0 -12,-6 -8,-21c5,-15 2,-22 -14,-26c-17,-4 -18,-8 -8,-25c10,-16 9,-21 -5,-29c-10,-6 -14,-16 -11,-30c4,-14 0,-25 -11,-31c-14,-8 -15,-12 -4,-25c10,-12 9,-17 -4,-27c-11,-8 -14,-21 -11,-39c4,-21 2,-27 -13,-27c-14,0 -15,-3 -6,-12c14,-14 16,-48 3,-48c-4,0 -6,-11 -3,-25c2,-15 0,-25 -7,-25c-8,0 -7,-6 1,-20c11,-17 11,-22 0,-29c-7,-4 -10,-15 -6,-24c3,-10 1,-24 -6,-32c-9,-10 -9,-15 -1,-15c15,0 14,-40 -1,-40c-8,0 -4,-7 7,-15c18,-14 18,-16 2,-32c-15,-15 -15,-17 1,-30c16,-12 16,-14 0,-26c-15,-12 -15,-14 0,-24c14,-8 15,-13 4,-26c-11,-13 -10,-17 4,-25c15,-9 16,-12 5,-26c-12,-14 -11,-19 4,-30c13,-9 15,-15 7,-20c-17,-10 -15,-26 3,-26c17,0 19,-9 6,-29c-7,-10 -4,-19 7,-27c13,-10 14,-15 4,-27c-10,-12 -9,-16 3,-21c11,-4 14,-13 10,-25c-3,-12 0,-21 11,-25c11,-4 14,-13 10,-31c-5,-18 -2,-25 9,-25c18,0 20,-21 3,-38c-9,-9 -7,-12 10,-12c24,0 32,-34 10,-43c-8,-4 -4,-8 10,-13c19,-5 22,-12 18,-30c-5,-19 -2,-24 14,-24c23,0 24,-4 10,-31c-9,-16 -7,-19 11,-19c18,0 20,-5 16,-26c-4,-22 -2,-25 15,-21c17,5 19,2 15,-19c-3,-19 0,-24 15,-24c15,0 18,-5 13,-20c-5,-14 -2,-20 9,-20c9,0 16,-9 16,-20c0,-13 7,-20 20,-20c15,0 20,-7 20,-26c0,-19 4,-25 15,-20c11,4 15,-1 15,-19c0,-18 5,-25 20,-25c13,0 20,-7 20,-20c0,-13 7,-20 19,-20c11,0 21,-9 24,-21c3,-12 10,-18 16,-14c6,3 11,-1 11,-10c0,-8 8,-19 18,-22c9,-4 26,-16 37,-28c12,-12 26,-20 33,-17c7,2 12,-3 12,-12c0,-9 8,-16 20,-16c11,0 20,-7 20,-15c0,-8 9,-15 20,-15c11,0 20,-4 20,-10c0,-5 9,-10 20,-10c11,0 20,-7 20,-15c0,-8 9,-15 20,-15c11,0 20,-6 20,-14c0,-9 7,-12 20,-9c11,3 20,0 20,-6c0,-6 9,-11 20,-11c11,0 20,-4 20,-10c0,-5 11,-10 25,-10c16,0 25,-6 25,-15c0,-11 7,-14 24,-9c16,4 25,1 29,-10c4,-10 13,-13 23,-9c10,4 20,0 25,-10c6,-9 17,-13 29,-10c13,4 26,-1 34,-12c9,-13 15,-15 20,-7c10,17 36,15 36,-3c0,-18 16,-20 24,-2c3,8 9,7 20,-7c13,-15 18,-17 30,-7c18,15 36,6 36,-17c1,-16 2,-16 14,1c16,21 36,22 36,2c0,-8 5,-15 10,-15c6,0 10,5 10,10c0,16 22,12 36,-7c8,-11 13,-13 14,-5c0,6 9,12 20,12c11,0 20,-6 20,-12c0,-10 2,-10 8,-1c4,6 26,10 52,9c25,-2 53,2 63,8c13,8 20,7 27,-4c9,-13 11,-13 20,0c8,12 13,13 29,3c14,-9 22,-9 27,-2c3,6 17,8 29,5c13,-3 26,-2 29,2c3,5 28,9 56,10c29,0 58,6 65,12c8,7 19,9 25,5c6,-4 17,-1 25,5c8,7 22,10 30,6c9,-3 18,1 22,10c4,10 13,14 29,10c12,-3 26,-2 29,4c3,5 17,10 30,10c13,0 27,5 30,10c4,6 15,8 25,5c13,-4 22,1 30,15c9,17 14,19 25,10c17,-14 35,-5 35,17c0,11 7,14 26,10c20,-3 28,0 31,14c3,12 14,19 28,19c13,0 25,7 29,15c3,8 15,15 26,15c11,0 20,7 20,16c0,10 6,13 19,9c13,-4 20,0 24,15c3,12 11,18 20,14c9,-3 16,3 20,17c4,14 11,20 21,16c11,-5 16,0 16,13c0,13 7,20 19,20c10,0 21,9 24,20c3,13 10,18 21,14c11,-4 16,0 16,15c0,14 5,19 16,14c11,-4 15,-1 12,13c-2,13 3,19 15,18c10,-1 17,5 17,17c0,12 7,19 20,19c13,0 20,7 20,20c0,12 7,20 16,20c12,0 15,6 10,25c-5,20 -3,25 14,25c13,0 20,7 20,20c0,11 7,20 15,20c8,0 15,9 15,20c0,11 7,20 15,20c9,0 12,6 9,15c-4,9 1,18 11,21c9,4 14,13 11,21c-4,9 1,17 13,20c13,3 17,11 14,24c-4,13 0,19 12,19c13,0 16,6 11,25c-5,19 -2,25 10,25c12,0 15,6 10,25c-5,19 -2,25 10,25c12,0 15,6 10,26c-5,20 -3,27 13,31c16,4 18,9 11,23c-7,12 -4,23 9,37c13,13 17,29 14,46c-4,21 -1,27 11,27c13,0 15,4 8,18c-12,21 -5,42 14,42c12,0 12,4 2,21c-10,17 -10,23 -1,26c8,3 11,14 7,30c-4,16 -2,28 7,33c10,7 10,11 -1,25c-12,15 -12,19 3,29c12,10 14,15 4,25c-8,8 -9,16 -1,29c8,12 8,22 0,35c-8,13 -8,20 3,27c13,7 13,11 1,25c-12,15 -12,19 2,29c16,12 16,14 1,29c-14,14 -14,18 -3,32c12,14 11,18 -1,25c-11,7 -11,14 -3,27c9,14 8,21 -5,30c-13,10 -14,15 -3,32c8,14 9,21 1,21c-6,0 -9,10 -8,23c2,12 -2,32 -9,44c-10,18 -9,24 5,32c16,9 16,10 2,11c-21,0 -33,28 -19,45c8,9 6,14 -5,19c-11,4 -14,13 -10,25c3,12 0,21 -11,25c-11,4 -14,13 -10,31c5,19 2,25 -10,25c-13,0 -15,6 -11,30c5,22 3,30 -8,30c-20,0 -29,19 -16,34c9,11 7,15 -10,19c-17,5 -20,11 -17,31c4,18 0,26 -15,30c-15,4 -18,10 -13,30c5,22 3,26 -14,26c-15,0 -20,7 -20,25c0,19 -5,25 -21,25c-17,0 -20,5 -17,24c4,20 0,26 -16,28c-14,2 -20,10 -19,24c2,15 -3,20 -20,20c-17,-1 -21,4 -20,22c2,16 -2,22 -18,22c-16,0 -20,5 -16,20c4,15 0,20 -14,20c-10,0 -19,5 -19,10c0,6 -7,10 -15,10c-8,0 -15,9 -15,20c0,13 -7,20 -20,20c-13,0 -20,7 -20,20c0,15 -7,20 -25,20c-18,0 -25,5 -25,20c0,17 -5,19 -25,14c-22,-5 -25,-3 -25,19c0,21 -4,24 -27,19c-21,-4 -25,-2 -20,12c5,12 1,16 -18,16c-18,0 -25,5 -25,19c0,14 -6,17 -25,13c-20,-3 -25,0 -25,15c0,16 -5,19 -25,15c-18,-3 -25,0 -25,10c0,11 -7,14 -24,11c-17,-4 -25,0 -28,15c-4,15 -11,19 -27,15c-15,-4 -21,-1 -21,11c0,12 -6,15 -25,10c-19,-5 -25,-2 -25,10c0,12 -6,15 -24,10c-16,-4 -25,-1 -29,11c-5,11 -14,14 -32,9c-19,-5 -25,-2 -25,10c0,18 -16,22 -22,5c-5,-15 -38,0 -38,18c0,13 -3,13 -16,2c-14,-11 -18,-10 -30,6c-11,15 -17,17 -23,7c-10,-16 -41,-5 -41,16c0,13 -3,12 -14,-4c-14,-18 -16,-18 -32,-2c-13,13 -21,14 -37,5c-15,-9 -21,-9 -24,0c-3,8 -15,10 -34,6c-18,-3 -29,-1 -29,6c0,8 -6,8 -21,-1c-18,-11 -23,-11 -26,0c-4,10 -8,10 -19,1c-10,-8 -18,-8 -27,0c-10,8 -17,7 -25,-1c-8,-8 -15,-8 -26,1c-10,9 -16,9 -21,1zm324,-105c496,-95 916,-466 1041,-921c30,-110 23,-103 -19,21c-79,231 -214,415 -431,589c-137,110 -277,182 -465,240c-117,36 -202,47 -367,47c-163,0 -234,-13 -243,-42c-4,-10 -14,-19 -23,-20c-12,0 -10,-3 6,-9c12,-5 25,-16 28,-25c10,-24 22,-18 29,15c6,29 28,40 39,21c3,-5 -3,-33 -13,-62c-20,-61 -48,-76 -66,-37c-6,13 -16,22 -23,21c-6,-2 -9,3 -6,11c6,16 -22,41 -30,28c-11,-18 18,-58 39,-55c11,2 14,0 6,-3c-11,-5 -11,-8 0,-16c10,-7 8,-8 -8,-3c-15,4 -29,-2 -47,-20c-14,-14 -36,-25 -49,-25c-23,0 -59,31 -70,60c-4,10 -6,8 -6,-7c-1,-25 -36,-40 -56,-23c-11,9 -12,7 -8,-10c4,-15 10,-19 22,-14c42,18 61,17 61,-4c0,-14 -12,-25 -40,-36c-22,-9 -44,-16 -48,-16c-5,0 -19,25 -31,56c-28,65 -37,65 -19,0c12,-44 11,-49 -6,-58c-19,-11 -19,-11 -1,-24c17,-13 16,-14 -13,-20c-17,-4 -29,-10 -26,-15c3,-5 -2,-9 -10,-9c-9,0 -16,-3 -16,-7c0,-14 -69,-55 -80,-48c-6,4 -21,0 -33,-7c-28,-18 -107,-11 -124,11c-9,11 -12,12 -13,3c0,-7 -5,-10 -11,-6c-8,4 -8,9 0,17c6,6 11,19 11,28c0,10 6,19 13,22c6,2 10,7 7,10c-6,6 -91,-73 -145,-134c-97,-109 -204,-295 -248,-434c-47,-146 -62,-246 -61,-425c0,-180 13,-263 64,-415c16,-47 27,-85 25,-85c-6,0 -45,90 -61,140c-55,175 -71,439 -38,631c66,385 314,726 665,917c132,71 355,145 489,161c95,12 310,4 409,-14zm-281,-112c-2,-46 9,-83 25,-83c8,0 8,-3 0,-11c-6,-6 -21,-8 -34,-4c-23,8 -23,8 -4,16c15,6 9,7 -20,7c-22,0 -32,-2 -22,-5c35,-9 15,-21 -56,-31c-71,-11 -190,-47 -276,-84c-73,-31 -40,-30 55,2c184,63 319,82 470,68c120,-11 300,-64 400,-119c83,-45 228,-149 220,-157c-3,-3 0,-12 7,-21c6,-8 -17,6 -53,31c-214,150 -424,220 -660,219c-418,-2 -785,-224 -964,-586c-63,-127 -86,-228 -93,-408c-7,-173 -23,-179 -23,-9c0,72 -4,111 -10,107c-12,-7 -4,65 17,155c18,77 78,219 125,297c77,129 237,286 370,364c79,46 245,115 338,140c36,9 64,22 62,28c-1,8 4,7 18,-1c10,-7 23,-8 27,-4c4,5 2,11 -4,13c-14,5 -19,94 -6,106c3,4 26,7 49,7l43,0l-1,-37zm142,22c0,-8 -4,-15 -9,-15c-6,0 -6,-12 0,-32c11,-41 2,-50 -52,-46c-43,3 -44,4 -47,42c-5,59 1,66 58,66c38,0 50,-4 50,-15zm80,-36c0,-31 4,-39 19,-39c10,0 24,-6 30,-14c17,-21 -2,-29 -49,-21l-40,7l0,53c0,34 5,55 13,58c21,7 27,-3 27,-44zm125,1c8,-24 14,-25 44,-4c37,27 50,1 12,-27c-16,-12 -35,-36 -41,-52c-5,-17 -13,-27 -17,-23c-11,11 -33,79 -33,104c0,28 26,29 35,2zm138,-33c10,-42 17,-45 42,-17c18,20 45,27 45,12c0,-4 -12,-19 -28,-32c-15,-14 -35,-36 -44,-50c-14,-21 -19,-23 -27,-10c-5,8 -7,27 -4,42c3,17 -1,37 -11,53c-9,14 -14,30 -10,36c11,19 29,3 37,-34zm-410,-44c-7,-2 -19,-2 -25,0c-7,3 -2,5 12,5c14,0 19,-2 13,-5zm65,0c-10,-2 -26,-2 -35,0c-10,3 -2,5 17,5c19,0 27,-2 18,-5zm-995,-194c-6,-6 -9,-17 -7,-23c3,-7 -4,-12 -15,-12c-20,0 -20,1 1,23c12,13 24,23 27,23c3,0 0,-5 -6,-11zm127,-73c0,-3 -4,-8 -10,-11c-5,-3 -10,-1 -10,4c0,6 5,11 10,11c6,0 10,-2 10,-4zm555,-66c-11,-5 -27,-9 -35,-9c-9,0 -8,4 5,9c11,5 27,9 35,9c9,0 8,-4 -5,-9zm970,-10c3,-5 1,-10 -4,-10c-6,0 -11,5 -11,10c0,6 2,10 4,10c3,0 8,-4 11,-10zm-1094,-35c-40,-19 -90,-45 -110,-57c-29,-18 -33,-19 -22,-4c15,18 91,60 151,82c64,23 56,14 -19,-21zm1119,5c0,-5 -2,-10 -4,-10c-3,0 -8,5 -11,10c-3,6 -1,10 4,10c6,0 11,-4 11,-10zm50,-50c0,-5 -2,-10 -4,-10c-3,0 -8,5 -11,10c-3,6 -1,10 4,10c6,0 11,-4 11,-10zm-665,-35c30,-13 35,-19 22,-22c-11,-3 -16,-11 -13,-19c3,-8 -1,-14 -9,-14c-20,0 -19,-9 3,-33c9,-11 13,-22 7,-24c-5,-2 -17,-8 -25,-13c-13,-9 -12,-12 4,-25c19,-15 19,-15 -2,-15c-28,0 -28,-15 -1,-34c21,-14 21,-15 -12,-18c-28,-3 -34,-8 -41,-38c-5,-19 -13,-43 -18,-52c-6,-11 -6,-19 0,-23c20,-12 9,-25 -21,-25c-22,0 -30,-4 -26,-13c3,-7 1,-33 -3,-58c-7,-34 -5,-48 7,-61c12,-14 13,-24 5,-45c-5,-16 -10,-44 -11,-63c-3,-68 -50,-100 -101,-68c-15,10 -24,9 -44,-2c-22,-11 -28,-11 -44,3c-10,9 -42,22 -71,29c-29,6 -55,18 -58,25c-8,21 -31,15 -39,-9c-7,-22 -8,-22 -15,7c-10,36 -84,81 -118,72c-17,-4 -25,1 -37,25c-12,23 -18,27 -29,18c-11,-9 -15,-7 -21,14c-3,14 -10,24 -14,21c-14,-9 -23,15 -22,62c3,124 127,274 294,356c51,26 116,51 143,56c80,16 263,8 310,-14zm-1350,-630c0,-23 -34,-33 -45,-14c-13,20 1,40 24,37c13,-2 21,-10 21,-23zm2405,0c0,-8 -4,-15 -9,-15c-13,0 -22,16 -14,24c11,11 23,6 23,-9zm-1094,-59c19,-14 19,-15 -2,-43c-25,-34 -69,-52 -85,-36c-18,18 -2,61 29,77c34,19 34,19 58,2zm941,-89c-15,-198 -115,-423 -260,-583c-57,-63 -187,-166 -271,-215c-249,-144 -610,-177 -872,-79c-76,28 -254,118 -294,148c-62,47 -140,117 -140,127c0,5 17,-7 38,-27c172,-163 446,-268 703,-268c229,0 451,61 599,165c188,132 301,255 379,410c52,105 89,218 104,316c6,43 13,79 15,79c3,0 2,-33 -1,-73zm-737,3c-7,-37 -6,-39 14,-34c15,3 31,-3 49,-20l26,-25l21,27l21,27l-5,-59c-7,-88 -61,-159 -166,-220c-67,-39 -113,-53 -202,-62c-73,-7 -89,-1 -35,15c24,7 26,9 10,10c-30,1 -40,21 -11,21c34,0 55,16 30,22c-12,4 -23,18 -27,36c-6,28 -11,31 -58,38c-29,4 -43,9 -32,11c61,11 62,11 57,43c-2,16 -9,30 -16,30c-6,0 0,9 14,20c14,11 22,20 18,20c-4,0 -3,11 2,25c7,18 6,25 -3,25c-6,1 4,8 23,16c19,8 50,29 68,47c30,28 35,30 45,16c7,-10 35,-19 69,-23c55,-7 58,-6 69,18c17,37 28,23 19,-24zm180,-134c0,-2 -7,-20 -16,-41c-10,-24 -11,-34 -3,-30c7,5 10,3 7,-6c-3,-8 -10,-13 -16,-12c-7,2 -9,-4 -5,-14c5,-12 3,-14 -7,-8c-9,6 -11,4 -5,-4c4,-8 -4,-24 -21,-42c-30,-32 -50,-38 -40,-13c3,9 2,12 -5,9c-6,-4 -8,-13 -5,-21c7,-18 -52,-56 -76,-48c-10,3 -26,1 -35,-5c-13,-8 -14,-10 -3,-11c10,0 11,-3 3,-11c-6,-6 -57,-12 -114,-14c-88,-2 -96,-1 -49,6c97,16 175,63 280,170c84,86 110,109 110,95zm205,-148c-44,-86 -136,-175 -207,-201c-30,-11 -20,-1 30,31c60,39 100,82 147,155c39,62 58,72 30,15zm71,-83c-32,-42 -44,-47 -19,-7c23,35 37,51 42,46c2,-2 -8,-19 -23,-39zm-206,31c0,-3 -4,-8 -10,-11c-5,-3 -10,-1 -10,4c0,6 5,11 10,11c6,0 10,-2 10,-4zm270,-55c0,-15 -97,-135 -151,-188c-54,-51 -165,-133 -181,-133c-4,0 -37,-14 -74,-31c-85,-40 -96,-30 -13,12c140,70 282,184 359,288c42,57 60,72 60,52zm-126,-59c-11,-10 -23,-24 -27,-32c-4,-12 -6,-12 -6,1c-1,9 9,24 22,32c30,21 37,21 11,-1zm-119,-22c-24,-26 -84,-64 -91,-57c-3,3 14,18 38,34c23,15 45,31 46,36c2,4 8,7 14,7c6,0 3,-9 -7,-20zm-1435,-62c25,-30 32,-42 16,-28c-28,25 -71,80 -63,80c2,0 23,-24 47,-52zm1280,7c0,-9 -123,-76 -133,-72c-6,2 21,20 59,40c76,40 74,39 74,32zm180,-14c0,-6 -4,-13 -10,-16c-5,-3 -10,1 -10,9c0,9 5,16 10,16c6,0 10,-4 10,-9zm-160,-26c-7,-8 -17,-15 -23,-15c-6,0 -18,-6 -26,-13c-37,-31 -168,-81 -216,-83c-50,-2 -50,-2 -20,11c17,8 37,14 45,15c35,1 231,86 239,103c1,4 6,6 8,3c3,-3 0,-12 -7,-21zm-1365,-65c10,-11 16,-21 14,-23c-44,-32 -58,-36 -67,-21c-8,14 -10,14 -26,-1c-9,-10 -19,-15 -22,-12c-6,5 66,76 77,77c3,0 14,-9 24,-20zm1435,16c0,-3 -4,-8 -10,-11c-5,-3 -10,-1 -10,4c0,6 5,11 10,11c6,0 10,-2 10,-4zm-295,-16c-11,-5 -29,-9 -40,-9c-17,-1 -17,1 -5,9c8,5 26,9 40,9c23,0 23,-1 5,-9zm263,-1c-7,-22 -145,-89 -224,-109c-102,-26 -183,-39 -189,-30c-3,4 26,13 63,20c93,18 195,53 272,95c70,37 84,41 78,24zm427,-25c22,-53 19,-60 -14,-25c-19,20 -35,29 -45,25c-9,-3 -16,-1 -16,5c0,10 32,29 52,30c4,1 15,-15 23,-35zm-795,-24c-8,-5 -31,-9 -50,-8l-35,1l40,7c59,11 61,11 45,0zm723,-28c3,-4 3,-19 0,-35c-4,-22 -11,-27 -34,-27c-17,0 -34,8 -43,22c-19,26 -11,41 14,28c25,-13 30,-13 30,5c0,15 25,21 33,7zm-1680,-24c7,-25 -8,-48 -30,-48c-12,0 -13,3 -3,15c6,8 9,23 5,35c-4,14 -2,20 8,20c8,0 17,-10 20,-22zm-57,-23c-21,-16 -32,-13 -21,4c3,6 14,11 23,11c15,-1 15,-2 -2,-15zm1642,-63c-18,-30 -45,-37 -40,-10c1,9 -2,19 -8,23c-18,11 -11,28 10,22c10,-3 19,-2 18,2c-2,20 4,23 19,8c16,-16 16,-19 1,-45zm-1554,3c-23,-31 -44,-45 -44,-30c0,14 45,65 57,65c9,0 5,-12 -13,-35zm1116,21c-33,-18 -160,-46 -202,-45c-48,1 -14,12 107,37c122,24 127,25 95,8zm-1060,-23c0,-13 -44,-53 -58,-53c-9,0 -3,11 15,30c27,29 43,38 43,23zm40,-26c0,-2 -12,-14 -26,-28l-27,-24l18,28c14,22 35,36 35,24zm1390,-12c0,-8 -12,-18 -26,-21c-21,-5 -24,-11 -20,-30c8,-31 -10,-31 -35,-1c-26,31 -24,43 14,55c47,15 67,14 67,-3zm-116,-64c3,-5 -1,-15 -10,-22c-13,-10 -17,-10 -26,2c-7,10 -8,1 -4,-29c5,-32 3,-43 -6,-40c-18,6 -37,70 -25,86c11,14 63,16 71,3zm-1075,-28c38,-22 36,-47 -4,-51c-16,-2 -34,-11 -40,-19c-18,-25 -25,-1 -13,45c12,48 15,49 57,25zm75,-37c-7,-19 14,-30 30,-17c18,15 23,6 18,-29c-4,-30 -22,-42 -22,-15c0,8 -7,15 -15,15c-8,0 -15,-4 -15,-10c0,-5 -7,-10 -15,-10c-11,0 -13,8 -9,33c9,49 13,59 23,52c6,-3 8,-12 5,-19zm880,-1c21,-31 20,-35 -4,-35c-10,0 -23,-8 -29,-17c-12,-22 -26,-10 -35,29c-4,20 -1,30 11,37c28,16 39,13 57,-14zm-105,-59l24,-26l-41,0c-32,0 -42,-4 -42,-16c0,-9 -6,-14 -12,-11c-14,4 -12,34 3,74c10,27 28,22 68,-21zm-611,22c7,-7 12,-22 12,-34c0,-51 -72,-61 -78,-11c-6,47 36,75 66,45zm480,-7c3,-10 -1,-12 -17,-8c-29,7 -26,-7 5,-22c30,-13 29,-40 -3,-52c-15,-5 -25,-3 -35,8c-11,14 -10,16 10,11c29,-8 28,6 -3,26c-27,18 -33,41 -12,50c21,8 50,2 55,-13zm-348,-11c0,-4 -6,-10 -14,-13c-8,-3 -16,-17 -18,-32c-4,-34 -22,-33 -26,2c-2,15 -11,33 -20,40c-14,10 -10,12 31,11c26,0 47,-4 47,-8zm104,-21c17,-25 12,-45 -16,-60c-42,-23 -94,48 -55,73c22,14 56,8 71,-13zm144,9c22,-22 13,-38 -20,-38c-31,1 -32,1 -14,15c19,14 19,15 -6,15c-15,0 -30,-5 -34,-12c-10,-16 26,-38 53,-32c12,4 23,2 23,-4c0,-33 -101,-15 -108,19c-7,39 75,68 106,37z" fill="#fbb42f" id="svg_3"/>
   <path d="m4018.41,-1086.82c-3,-5 -1,-10 4,-10c6,0 11,5 11,10c0,6 -2,10 -4,10c-3,0 -8,-4 -11,-10z" fill="#fbb42f" id="svg_4"/>
   <path d="m3913.41,-1203.82c8,-3 18,-11 22,-17c5,-7 8,-4 8,7c0,11 -7,17 -22,16c-16,0 -18,-2 -8,-6z" fill="#fbb42f" id="svg_5"/>
   <path d="m3457.41,-1338.82l-19,-23l23,19c21,18 27,26 19,26c-2,0 -12,-10 -23,-22z" fill="#fbb42f" id="svg_6"/>
   <path d="m3573.41,-1430.82c0,-9 5,-16 10,-16c6,0 10,4 10,9c0,6 -4,13 -10,16c-5,3 -10,-1 -10,-9z" fill="#fbb42f" id="svg_7"/>
   <path d="m3711.41,-1412.82c-38,-20 -36,-28 2,-9c17,9 30,18 30,20c0,7 -1,6 -32,-11z" fill="#fbb42f" id="svg_8"/>
   <path d="m4321.41,-1143.82c7,-3 16,-2 19,1c4,3 -2,6 -13,5c-11,0 -14,-3 -6,-6z" fill="#fbb42f" id="svg_9"/>
   <path d="m4623.41,-2807.82l-25,-20l33,16c17,8 32,18 32,20c0,10 -16,4 -40,-16z" fill="#fbb42f" id="svg_10"/>
   <path d="m4503.41,-2856.82c-21,-7 -21,-8 -5,-9c11,0 27,4 35,9c18,11 5,11 -30,0z" fill="#fbb42f" id="svg_11"/>
   <path d="m3768.41,-3436.82c-3,-5 1,-10 10,-10c9,0 13,5 10,10c-3,6 -8,10 -10,10c-2,0 -7,-4 -10,-10z" fill="#fbb42f" id="svg_12"/>
   <path d="m3990.41,-3503.82c-4,-3 -7,-15 -7,-25c0,-28 34,-19 38,10c3,21 -16,31 -31,15z" fill="#fbb42f" id="svg_13"/>
   <path d="m4213.41,-3546.82c0,-11 7,-20 15,-20c8,0 15,9 15,20c0,11 -7,20 -15,20c-8,0 -15,-9 -15,-20z" fill="#fbb42f" id="svg_14"/>
   <path d="m9379.41,-1081.82c-87,-36 -159,-89 -240,-177c-143,-158 -274,-397 -385,-707c-66,-181 -147,-514 -178,-731l-18,-125l-90,-91c-222,-225 -443,-333 -660,-322c-200,11 -282,101 -293,324l-4,101l95,7c256,18 515,140 663,312c151,175 175,341 68,471c-60,73 -101,90 -240,102c-266,23 -422,-32 -616,-218c-151,-144 -276,-346 -335,-538c-22,-75 -26,-107 -26,-213c0,-142 15,-217 65,-320c38,-79 150,-196 223,-232c106,-53 151,-63 295,-63c123,0 143,3 220,29c176,60 321,150 503,312c60,52 114,94 121,91c7,-3 18,-31 25,-63c19,-85 73,-192 125,-246c135,-141 386,-167 619,-64c95,42 216,127 313,219c88,83 124,104 124,72c0,-25 58,-135 95,-181c22,-27 58,-54 98,-73c209,-101 442,-39 665,178c63,62 92,83 92,67c0,-3 -22,-73 -50,-156c-100,-301 -211,-477 -365,-575c-86,-55 -131,-68 -250,-73c-123,-5 -192,12 -258,63c-92,69 -88,195 8,257c19,13 35,25 35,28c0,18 -78,54 -124,58c-135,11 -258,-111 -257,-255c0,-61 40,-173 61,-173c6,0 9,-4 6,-8c-10,-16 121,-129 185,-160c107,-52 178,-67 329,-67c152,0 227,16 347,70c172,79 343,221 455,380c75,105 180,322 232,480c71,212 176,648 240,1000c19,105 44,234 56,289c31,152 53,136 -183,136l-203,0l-13,-87c-19,-138 -78,-433 -118,-597c-67,-280 -209,-498 -378,-583c-72,-37 -168,-43 -228,-14c-57,27 -69,55 -75,167c-7,139 20,306 139,860c27,128 49,237 49,243c0,8 -62,11 -203,11l-204,0l-71,-362c-39,-200 -81,-421 -93,-493c-11,-71 -26,-140 -33,-153c-25,-47 -143,-176 -211,-231c-129,-105 -212,-141 -324,-141c-181,0 -246,83 -244,315c1,121 9,178 55,395l31,145l87,90c201,209 327,382 449,617c151,288 176,478 74,570c-66,60 -179,73 -277,33zm108,-280c-1,-55 -10,-90 -39,-165c-69,-174 -171,-358 -293,-526c-24,-33 -44,-31 -36,4c20,85 117,390 147,465c69,169 161,304 204,295c15,-3 18,-13 17,-73zm-1486,-740c47,-19 72,-65 72,-133c0,-110 -116,-263 -245,-323c-72,-34 -227,-61 -246,-42c-23,23 91,272 168,367c59,72 108,113 159,131c49,18 47,18 92,0z" fill="#fbb42f" id="svg_15"/>
   <path d="m10214.41,-1133.82c-43,-8 -90,-52 -101,-94c-23,-85 30,-163 132,-194c102,-30 197,-15 413,65c162,60 236,69 294,35c42,-25 71,-63 80,-105c8,-43 25,-48 46,-16c29,43 34,90 16,129c-56,122 -229,141 -526,57c-55,-15 -119,-30 -143,-33l-43,-5l6,43c9,55 -6,82 -58,106c-41,18 -67,21 -116,12z" fill="#fbb42f" id="svg_16"/>
   <path d="m5743.41,-1944.82c0,-5 20,-98 44,-208c25,-109 67,-316 95,-459c75,-382 174,-823 192,-857c9,-16 28,-18 219,-18l209,0l49,88c71,126 246,453 337,627c301,582 396,767 393,769c-2,1 -57,-1 -123,-5c-66,-4 -176,-8 -244,-8l-123,-1l4,-97c3,-89 7,-106 42,-181l39,-82l-208,-413c-236,-468 -253,-499 -269,-494c-6,2 -14,26 -18,53c-24,161 -225,1171 -250,1257l-11,37l-189,0c-103,0 -188,-4 -188,-8z" fill="#fbb42f" id="svg_17"/>
   <path d="m3163.41,-3828.82c-68,-29 -93,-46 -118,-82l-27,-39l-3,-243c-3,-228 -2,-245 17,-282c25,-50 63,-92 83,-92c8,0 19,-5 25,-11c6,-6 40,-12 75,-12c72,0 150,33 185,81c42,57 46,93 39,325c-6,191 -9,222 -27,255c-26,48 -64,81 -100,89c-16,3 -32,10 -35,14c-7,12 -83,10 -114,-3zm115,-93c18,-9 37,-27 44,-41c7,-16 11,-100 11,-237c0,-190 -2,-215 -19,-243c-37,-60 -124,-69 -172,-18c-24,26 -24,26 -24,256l0,230l37,34c42,38 72,42 123,19z" fill="#fbb42f" id="svg_18"/>
   <path d="m4407.41,-3837.82c-52,-25 -87,-63 -108,-117c-13,-34 -16,-81 -16,-247c0,-227 7,-262 64,-323c42,-45 86,-62 162,-62c95,0 160,39 194,118c18,40 20,68 20,249c0,227 -8,272 -61,336c-52,63 -174,85 -255,46zm168,-98l33,-29l3,-214c2,-188 0,-217 -15,-247c-41,-78 -112,-91 -173,-30l-30,31l0,216c0,199 2,220 20,250c36,59 110,70 162,23z" fill="#fbb42f" id="svg_19"/>
   <path d="m5113.41,-3833.82c-65,-28 -98,-60 -119,-118c-19,-50 -21,-78 -21,-260c0,-125 4,-206 10,-210c6,-3 10,-16 10,-28c1,-32 59,-93 111,-117c49,-22 127,-25 175,-7c39,15 73,43 107,88c26,34 27,41 27,158l0,122l-102,-3l-103,-3l-3,-42c-2,-30 1,-43 10,-44c7,-1 31,-2 53,-3c39,-1 40,-2 49,-47c8,-40 5,-54 -13,-93c-18,-37 -30,-48 -61,-57c-58,-18 -105,-5 -137,38l-28,36l-3,208c-2,114 1,222 5,240c13,50 53,74 123,74c70,-1 90,-15 90,-64c0,-20 5,-42 12,-49c16,-16 83,-15 97,2c18,21 -14,94 -60,137c-60,56 -156,74 -229,42z" fill="#fbb42f" id="svg_20"/>
   <path d="m1743.41,-3845.82l-65,-17l-3,-362l-2,-362l45,0l45,0l0,129c0,71 3,136 6,145c5,13 22,16 84,16c107,0 177,30 214,94c23,39 26,56 26,131c0,99 -20,157 -70,199c-58,49 -161,59 -280,27zm209,-97c31,-25 31,-27 31,-120c0,-126 -9,-136 -118,-132l-77,3l-3,124c-1,69 0,131 2,138c4,9 26,13 70,13c55,0 69,-4 95,-26z" fill="#fbb42f" id="svg_21"/>
   <path d="m2348.41,-4197.82c-4,-203 -5,-373 -1,-376c3,-4 23,-6 43,-6l38,0l6,159c3,87 7,160 7,162c1,1 51,2 112,2l110,0l2,-162l3,-162l43,-1l42,-1l0,373l0,373l-45,0l-45,0l-2,-162l-3,-163l-106,-3c-127,-3 -117,-19 -118,181c0,75 -3,142 -6,147c-3,6 -21,10 -39,10l-33,0l-8,-371z" fill="#fbb42f" id="svg_22"/>
   <path d="m3661.41,-3867.82c-2,-22 -2,-42 1,-45c2,-2 35,-4 73,-4c46,0 70,-4 72,-12c4,-11 16,-490 16,-615l0,-43l46,0l46,0l-2,323c-1,177 -2,328 -1,335c1,8 21,12 64,12c72,0 87,10 87,57l0,33l-199,0l-199,0l-4,-41z" fill="#fbb42f" id="svg_23"/>
   <path d="m5692.41,-3838.82c-3,-7 -3,-178 -1,-380l4,-368l38,0c21,0 42,6 47,13c4,6 10,75 13,152l5,140l51,3l51,3l17,-53c9,-29 21,-62 26,-73c52,-116 83,-174 96,-179c19,-7 59,-8 66,-1c3,3 -19,65 -48,138c-65,159 -67,181 -20,204c85,40 105,235 34,336c-39,56 -89,71 -239,75c-108,3 -137,1 -140,-10zm289,-121c25,-25 27,-34 27,-103c0,-101 -15,-113 -132,-114l-83,0l0,113c0,77 4,117 13,126c8,9 34,11 80,9c57,-3 71,-8 95,-31z" fill="#fbb42f" id="svg_24"/>
   <path d="m6532.41,-3853.82c-6,-16 -15,-46 -20,-68c-16,-72 -35,-150 -41,-165c-6,-14 -31,-103 -41,-145c-14,-56 -48,-172 -56,-190c-5,-11 -13,-45 -19,-75c-5,-30 -12,-62 -14,-70c-2,-12 8,-15 47,-15l50,0l10,68c13,89 24,97 130,97c93,0 111,-9 118,-60c3,-19 9,-51 14,-70c8,-33 11,-35 56,-38c52,-3 53,-2 33,60c-8,24 -18,61 -22,83c-3,22 -10,45 -14,50c-8,10 -9,18 -33,140c-7,39 -16,77 -19,85c-12,28 -72,290 -77,333c-1,4 -21,7 -46,7c-40,0 -47,-3 -56,-27zm61,-213c0,-11 11,-68 25,-126c14,-58 25,-110 25,-115c0,-10 -123,-13 -132,-4c-3,3 9,63 28,133c18,70 33,128 34,130c0,1 5,2 10,2c6,0 10,-9 10,-20z" fill="#fbb42f" id="svg_25"/>
   <path d="m7048.41,-3839.82c-3,-6 -4,-176 -3,-377l3,-365l40,1l40,1l3,141l3,142l71,0c177,0 258,72 258,230c0,76 -26,153 -63,183c-56,46 -97,57 -225,57c-89,0 -124,-3 -127,-13zm267,-88c61,-33 64,-222 4,-261c-15,-10 -166,-10 -166,0c-4,80 -5,250 -2,260c5,15 135,17 164,1z" fill="#fbb42f" id="svg_26"/>
   <path d="m8037.41,-3835.82c-2,-2 -4,-75 -4,-162l0,-159l-25,-6c-13,-3 -66,-4 -117,-2l-93,4l-3,162l-2,162l-45,0l-45,0l2,-372l3,-371l40,-1l40,-1l5,160l5,160l115,0l115,0l3,-162l2,-163l45,0l45,0l0,375c0,206 -3,375 -7,376c-34,3 -75,3 -79,0z" fill="#fbb42f" id="svg_27"/>
   <path d="m8690.41,-3927.82c-26,-55 -47,-108 -47,-118c0,-19 -29,-51 -47,-51c-15,0 -43,35 -43,54c0,17 -13,47 -47,106c-8,14 -21,42 -30,63c-15,35 -18,37 -64,37l-47,0l18,-37c38,-81 60,-132 60,-142c0,-6 5,-11 10,-11c6,0 10,-5 10,-11c0,-6 18,-51 40,-100l40,-89l6,-172c3,-95 9,-177 14,-181c4,-5 23,-7 41,-5l34,3l-4,157l-4,157l52,105c28,58 51,108 51,111c0,6 28,69 71,160c13,28 25,53 27,58c2,4 -18,7 -45,7l-49,0l-47,-101z" fill="#fbb42f" id="svg_28"/>
   <path d="m465.41,-4098.82c-19,-19 -14,-38 14,-48c15,-6 169,-10 368,-10c282,0 346,3 362,14c15,12 17,18 8,33c-10,17 -36,18 -375,21c-275,2 -368,-1 -377,-10z" fill="#fbb42f" id="svg_29"/>
  </g>
 </g>
</svg>